<svg width="10" height="11" viewBox="0 0 10 11" fill="none" xmlns="http://www.w3.org/2000/svg">
<path d="M5.778 10.09C4.842 10.09 4.002 9.886 3.258 9.478C2.526 9.058 1.95 8.488 1.53 7.768C1.11 7.036 0.9 6.202 0.9 5.266C0.9 4.318 1.11 3.484 1.53 2.764C1.95 2.044 2.526 1.48 3.258 1.072C4.002 0.663999 4.842 0.459999 5.778 0.459999C6.582 0.459999 7.308 0.616 7.956 0.928C8.604 1.24 9.114 1.708 9.486 2.332L8.532 2.98C8.208 2.5 7.806 2.146 7.326 1.918C6.846 1.69 6.324 1.576 5.76 1.576C5.088 1.576 4.482 1.732 3.942 2.044C3.402 2.344 2.976 2.77 2.664 3.322C2.352 3.874 2.196 4.522 2.196 5.266C2.196 6.01 2.352 6.658 2.664 7.21C2.976 7.762 3.402 8.194 3.942 8.506C4.482 8.806 5.088 8.956 5.76 8.956C6.324 8.956 6.846 8.842 7.326 8.614C7.806 8.386 8.208 8.038 8.532 7.57L9.486 8.218C9.114 8.83 8.604 9.298 7.956 9.622C7.308 9.934 6.582 10.09 5.778 10.09Z" fill="white"/>
</svg>
